<svg width="84" height="16" viewBox="0 0 84 16" fill="none" xmlns="http://www.w3.org/2000/svg">
<path d="M80.1207 14.0002L79.0307 9.31416L82.6673 6.16283L77.8733 5.7515L76.0007 1.3335L74.128 5.7515L69.334 6.16283L72.9707 9.31416L71.8807 14.0002L76.0007 11.5148L80.1207 14.0002Z" fill="#6E38F7"/>
<path d="M63.1207 14.0002L62.0307 9.31416L65.6673 6.16283L60.8733 5.7515L59.0007 1.3335L57.128 5.7515L52.334 6.16283L55.9707 9.31416L54.8807 14.0002L59.0007 11.5148L63.1207 14.0002Z" fill="#6E38F7"/>
<path d="M46.1207 14.0002L45.0307 9.31416L48.6673 6.16283L43.8733 5.7515L42.0007 1.3335L40.128 5.7515L35.334 6.16283L38.9707 9.31416L37.8807 14.0002L42.0007 11.5148L46.1207 14.0002Z" fill="#6E38F7"/>
<path d="M29.1207 14.0002L28.0307 9.31416L31.6673 6.16283L26.8733 5.7515L25.0007 1.3335L23.128 5.7515L18.334 6.16283L21.9707 9.31416L20.8807 14.0002L25.0007 11.5148L29.1207 14.0002Z" fill="#6E38F7"/>
<path d="M12.1207 14.0002L11.0307 9.31416L14.6673 6.16283L9.87332 5.7515L8.00065 1.3335L6.12798 5.7515L1.33398 6.16283L4.97065 9.31416L3.88065 14.0002L8.00065 11.5148L12.1207 14.0002Z" fill="#6E38F7"/>
</svg>
